<svg width="25" height="27" viewBox="0 0 25 27" fill="none" xmlns="http://www.w3.org/2000/svg">
<path fill-rule="evenodd" clip-rule="evenodd" d="M18.1365 3.15908L9.21523 8.58044H11.7523L18.3389 4.5778L19.306 3.98986L22.0944 8.58044H23.7176C24.0712 8.58044 24.3908 8.72529 24.623 8.95535C24.8551 9.18754 25 9.50707 25 9.85855V24.8956C25 25.2471 24.8551 25.5666 24.6251 25.7967V25.7988C24.3929 26.031 24.0734 26.1737 23.7198 26.1737H1.28238C0.928766 26.1737 0.609237 26.031 0.377045 25.7988V25.7967C0.144853 25.5666 0 25.2471 0 24.8978V9.85855C0 9.50707 0.144853 9.18541 0.374915 8.95535C0.607106 8.72316 0.926636 8.58044 1.28025 8.58044H1.8128L15.6633 0.164025C15.8401 0.0575153 16.0404 0 16.247 0C16.3365 0 16.426 0.010651 16.5133 0.031953C16.803 0.102249 17.0544 0.285446 17.2077 0.54107L18.6201 2.86512L18.1365 3.15908ZM1.25469 9.71796C1.20569 9.77122 1.16522 9.83086 1.1354 9.8969V11.748H23.8603V9.85855C23.8603 9.81808 23.8454 9.78187 23.8199 9.75844H23.8177C23.7922 9.73287 23.756 9.71583 23.7155 9.71583H1.28025C1.27173 9.71583 1.26321 9.71583 1.25469 9.71796ZM3.40406 18.0449H7.46208V19.5637H3.40406V18.0449ZM3.40406 21.6407H14.7474V23.0104H3.40406V21.6407ZM18.3644 18.0449H22.4225V19.5637H18.3644V18.0449ZM13.3776 18.0449H17.4357V19.5637H13.3776V18.0449ZM8.39085 18.0449H12.4489V19.5637H8.39085V18.0449ZM23.8603 16.0063H1.1354V24.8956C1.1354 24.9361 1.15031 24.9723 1.178 24.9979H1.18013C1.20782 25.0256 1.24404 25.0405 1.28025 25.0405H23.7176C23.756 25.0405 23.7922 25.0234 23.8199 24.9979C23.8476 24.9702 23.8625 24.934 23.8625 24.8956V16.0063H23.8603Z" fill="black"/>
</svg>
