<svg width="90" height="25" viewBox="0 0 90 25" fill="none" xmlns="http://www.w3.org/2000/svg">
<path d="M33.12 14.9333C34.3966 14.9323 35.6308 14.4824 36.5999 13.6649C37.5691 12.8474 38.2093 11.716 38.4051 10.475C38.8181 7.888 36.7634 5.62967 33.8522 5.62967H29.16C29.072 5.62855 28.9865 5.65878 28.9194 5.71477C28.8523 5.77077 28.808 5.84876 28.7947 5.93436L26.7035 18.9927C26.696 19.0404 26.699 19.0891 26.7124 19.1356C26.7258 19.182 26.7492 19.2251 26.7811 19.2618C26.813 19.2985 26.8525 19.328 26.8971 19.3483C26.9416 19.3685 26.9901 19.379 27.0392 19.3791H29.5221C29.6099 19.38 29.6951 19.3497 29.762 19.2937C29.829 19.2377 29.8731 19.1599 29.8863 19.0745L30.5015 15.2385C30.5147 15.1529 30.5588 15.0749 30.6259 15.0188C30.6929 14.9627 30.7783 14.9323 30.8663 14.9333H33.12ZM35.1979 10.3573C35.0444 11.3135 34.2932 12.0182 32.8553 12.0182H31.0161L31.5736 8.53904H33.3794C34.8671 8.54217 35.3504 9.40519 35.1979 10.3599V10.3573ZM49.1628 9.74269H46.8053C46.7173 9.74168 46.6319 9.77195 46.5648 9.82792C46.4977 9.8839 46.4534 9.96183 46.44 10.0474L46.3638 10.5286C46.3638 10.5286 44.5336 8.56248 41.2946 9.89061C39.4364 10.6515 38.5449 12.2239 38.1658 13.375C38.1658 13.375 36.9603 16.8739 39.6852 18.8005C39.6852 18.8005 42.2111 20.6526 45.0561 18.6859L45.0069 18.9927C44.9992 19.0404 45.0022 19.0892 45.0155 19.1357C45.0289 19.1822 45.0523 19.2253 45.0842 19.262C45.1161 19.2987 45.1557 19.3282 45.2003 19.3484C45.2449 19.3687 45.2934 19.3791 45.3425 19.3791H47.6989C47.7869 19.3803 47.8724 19.35 47.9395 19.294C48.0067 19.238 48.051 19.1601 48.0642 19.0745L49.4979 10.1291C49.5054 10.0814 49.5024 10.0327 49.489 9.98624C49.4756 9.93979 49.4522 9.89674 49.4203 9.86003C49.3884 9.82333 49.3489 9.79384 49.3043 9.77358C49.2598 9.75333 49.2118 9.74279 49.1628 9.74269ZM45.6967 14.6864C45.6045 15.3097 45.2856 15.8789 44.7992 16.2885C44.3128 16.698 43.6919 16.9201 43.0518 16.9135C42.8011 16.9163 42.5515 16.8803 42.3122 16.8068C41.2957 16.4859 40.716 15.5245 40.8828 14.4828C40.9751 13.8578 41.2953 13.2872 41.7837 12.8773C42.2721 12.4675 42.8953 12.2463 43.5372 12.2552C43.7882 12.2526 44.0381 12.289 44.2773 12.3625C45.2901 12.6823 45.8661 13.6437 45.6993 14.6864H45.6967Z" fill="#003087"/>
<path d="M67.0616 14.9333C68.3389 14.933 69.574 14.4835 70.544 13.6659C71.5141 12.8484 72.1551 11.7166 72.3515 10.475C72.7639 7.88799 70.7098 5.62966 67.7975 5.62966H63.1069C63.019 5.62878 62.9337 5.6591 62.8667 5.71506C62.7997 5.77103 62.7555 5.84888 62.7421 5.93434L60.6446 18.9963C60.6326 19.0683 60.645 19.1421 60.6799 19.2064C60.7149 19.2707 60.7704 19.3219 60.8378 19.3521C60.8824 19.3725 60.931 19.3832 60.9802 19.3833H63.4637C63.5517 19.3842 63.637 19.3538 63.704 19.2977C63.771 19.2416 63.8152 19.1637 63.8285 19.0781L64.4442 15.2422C64.4572 15.1565 64.5013 15.0784 64.5684 15.0223C64.6355 14.9662 64.7209 14.9359 64.8089 14.9369L67.0616 14.9333ZM69.1395 10.3573C68.986 11.3135 68.2348 12.0182 66.7963 12.0182H64.9577L65.5157 8.53903H67.3215C68.8081 8.54216 69.2925 9.40518 69.1395 10.3599V10.3573ZM83.1038 9.74268H80.749C80.6611 9.7418 80.5758 9.77212 80.5088 9.82809C80.4418 9.88405 80.3976 9.9619 80.3842 10.0474L80.3069 10.5286C80.3069 10.5286 78.4773 8.56247 75.2383 9.89059C73.3806 10.6515 72.4886 12.2239 72.109 13.375C72.109 13.375 70.9041 16.8739 73.6284 18.8005C73.6284 18.8005 76.1548 20.6526 78.9998 18.6859L78.9506 18.9927C78.9386 19.0646 78.951 19.1384 78.9859 19.2027C79.0209 19.267 79.0764 19.3182 79.1438 19.3484C79.1883 19.3692 79.237 19.3797 79.2862 19.3797H81.6426C81.7307 19.381 81.8163 19.3507 81.8834 19.2946C81.9505 19.2384 81.9946 19.1602 82.0074 19.0744L83.4416 10.1291C83.4486 10.0813 83.4453 10.0325 83.4318 9.98598C83.4183 9.93947 83.3949 9.89631 83.3632 9.85934C83.3314 9.82229 83.2916 9.79262 83.2468 9.77245C83.2019 9.75229 83.1531 9.74212 83.1038 9.74268ZM79.6383 14.6864C79.5471 15.3102 79.2285 15.88 78.7419 16.2897C78.2553 16.6995 77.6338 16.9212 76.9933 16.9135C76.7423 16.9164 76.4923 16.8804 76.2527 16.8067C75.2357 16.4859 74.6555 15.5244 74.8222 14.4828C74.9143 13.8594 75.2332 13.2901 75.7196 12.8804C76.206 12.4708 76.8269 12.2486 77.4672 12.2552C77.7186 12.2526 77.9685 12.2885 78.2078 12.3625C79.2312 12.6823 79.8088 13.6437 79.6409 14.6864H79.6383Z" fill="#0070E0"/>
<path d="M57.8144 9.96408L54.9731 14.6823L53.5315 9.99898C53.5089 9.92466 53.4624 9.85954 53.399 9.81335C53.3357 9.76716 53.2588 9.74239 53.18 9.74273H50.6166C50.5724 9.74189 50.5286 9.75162 50.4891 9.77107C50.4496 9.79052 50.4154 9.81912 50.3896 9.85441C50.3638 9.8897 50.3471 9.93063 50.3408 9.97368C50.3346 10.0167 50.3391 10.0606 50.354 10.1016L52.9375 17.9901L50.6012 21.7078C50.5748 21.7488 50.5601 21.7959 50.5587 21.8444C50.5573 21.8928 50.5692 21.9407 50.5931 21.9831C50.6171 22.0254 50.6522 22.0606 50.6948 22.085C50.7374 22.1093 50.7859 22.1219 50.8352 22.1214H53.5971C53.6761 22.1218 53.7538 22.1019 53.8226 22.0637C53.8914 22.0255 53.9489 21.9704 53.9894 21.9037L61.2064 10.1578C61.2324 10.1168 61.2466 10.0697 61.2477 10.0214C61.2488 9.97311 61.2366 9.92542 61.2124 9.88336C61.1882 9.8413 61.153 9.80643 61.1104 9.78241C61.0678 9.7584 61.0194 9.74613 60.9703 9.74689H58.2094C58.13 9.74598 58.0518 9.76556 57.9825 9.80367C57.9132 9.84177 57.8552 9.89708 57.8144 9.96408Z" fill="#003087"/>
<path d="M85.7553 5.93068L83.6578 18.9927C83.6458 19.0646 83.6582 19.1384 83.6931 19.2027C83.7281 19.267 83.7835 19.3182 83.851 19.3484C83.8955 19.3692 83.9442 19.3796 83.9934 19.3796H86.4758C86.5639 19.3807 86.6493 19.3504 86.7164 19.2943C86.7834 19.2382 86.8275 19.1601 86.8406 19.0744L88.9386 6.01245C88.9465 5.96474 88.9436 5.91592 88.9303 5.86941C88.9169 5.8229 88.8934 5.77982 88.8614 5.74318C88.8294 5.70653 88.7898 5.67708 88.7452 5.65686C88.7006 5.63664 88.6521 5.62611 88.603 5.626H86.1201C86.0322 5.62511 85.9469 5.65544 85.8799 5.7114C85.8129 5.76737 85.7687 5.84522 85.7553 5.93068Z" fill="#0070E0"/>
<path d="M19.6656 11.5938C19.133 14.5808 16.6559 16.8386 13.4053 16.8386H11.3416C10.9208 16.8386 10.4967 17.2219 10.4295 17.6459L9.52576 23.2891C9.47335 23.6104 9.32035 23.7172 8.98946 23.7172H5.67005C5.33441 23.7172 5.25499 23.6068 5.30529 23.2813L5.68646 19.3787L1.70211 19.1761C1.36699 19.1761 1.24576 18.9964 1.29341 18.6672L4.01194 1.70889C4.06435 1.38753 4.26764 1.24951 4.59747 1.24951H11.492C14.8109 1.24951 16.9105 3.44743 17.1673 6.29743C19.142 7.60993 20.0653 9.35628 19.6661 11.5933L19.6656 11.5938Z" fill="#001C64"/>
<path d="M6.69656 13.06L5.68697 19.3792L5.0485 23.3438C5.03664 23.4203 5.04166 23.4983 5.06319 23.5727C5.08473 23.647 5.1223 23.716 5.17333 23.7748C5.22436 23.8336 5.28767 23.8809 5.35895 23.9135C5.43022 23.9461 5.50779 23.9632 5.58639 23.9636H9.09215C9.25217 23.9634 9.40687 23.9071 9.52846 23.8048C9.65005 23.7024 9.73056 23.5608 9.7555 23.4053L10.6783 17.6449C10.7033 17.4895 10.7839 17.3479 10.9055 17.2457C11.027 17.1435 11.1817 17.0872 11.3416 17.0871H13.4053C14.9778 17.085 16.4978 16.5304 17.6914 15.5232C18.8849 14.516 19.6735 13.1225 19.9149 11.5938C20.2723 9.3506 19.125 7.30841 17.1614 6.29956C17.157 6.53856 17.1358 6.77698 17.0979 7.0131C16.8556 8.54097 16.0667 9.93352 14.8734 10.94C13.68 11.9464 12.1606 12.5006 10.5888 12.5027H7.35939C7.19956 12.5027 7.04499 12.5589 6.92349 12.6611C6.80199 12.7632 6.72152 12.9047 6.69656 13.06Z" fill="#0070E0"/>
<path d="M5.68642 19.3792H1.60412C1.52536 19.3789 1.44761 19.3618 1.37616 19.3292C1.30472 19.2966 1.24126 19.2492 1.19011 19.1903C1.13896 19.1313 1.10132 19.0623 1.07977 18.9877C1.05821 18.9132 1.05323 18.835 1.06518 18.7584L3.816 1.60008C3.84073 1.44458 3.9211 1.30288 4.04263 1.20051C4.16415 1.09815 4.31884 1.04184 4.47883 1.04175H11.4882C14.8071 1.04175 17.2202 3.41779 17.1635 6.29644C16.2802 5.84809 15.2992 5.61803 14.3052 5.62612H8.46159C8.30156 5.62616 8.14679 5.68235 8.0251 5.7846C7.90341 5.88685 7.82279 6.02844 7.79771 6.18394L6.69653 13.06L5.68642 19.3792Z" fill="#003087"/>
</svg>
